# xmcd
#
# Track frame offsets: 
#        183
#        8283
#        13560
#        22408
#        26208
#        30753
#        37283
#        45268
#        48333
#        53683
#        61408
#        65308
#        77445
#        86750
#        93240
#        98170
#        108245
#        120970
#        131620
#        142960
#        160740
#        167383
#        178030
#        184825
#        205520
#        211090
#        218173
#        224093
#        228633
#        247990
#        251318
#        256640
#        263618
#        267698
#        273175
#        281633
#        288110
#        295068
#        304633
#        309823
#
# Disc length: 4262 seconds
#
# Revision: 7
# Processed by: cddbd v1.5.2PL0 Copyright (c) Steve Scherf et al.
# Submitted via: ExactAudioCopyFreeDBPlugin 1.0
#
DISCID=1610a428
DTITLE=Helmut Walcha - J.S. Bach - The Organ Works - CD07
DYEAR=1969
DGENRE=Classical
TTITLE0=Orgelbüchlein - Choral Prelude: Nun komm' der Heiden Heiland, 
TTITLE0=BWV 599
TTITLE1=Orgelbüchlein - Choral Prelude: Gott, durch deine Güte, BWV 60
TTITLE1=0
TTITLE2=Orgelbüchlein - Choral Prelude: Herr Christ, der ein'ge Gottes
TTITLE2=Sohn, BWV 601
TTITLE3=Orgelbüchlein - Choral Prelude: Lob sei dem allmächtigen Gott,
TTITLE3=BWV 602
TTITLE4=Orgelbüchlein - Choral Prelude: Puer natus in Bethlehem, BWV 6
TTITLE4=03
TTITLE5=Orgelbüchlein - Choral Prelude: Gelobet seist du, Jesu Christ,
TTITLE5=BWV 604
TTITLE6=Orgelbüchlein - Choral Prelude: Der Tag, der ist so freudenrei
TTITLE6=ch, BWV 605
TTITLE7=Orgelbüchlein - Choral Prelude: Vom Himmel hoch, da komm' ich 
TTITLE7=her, BWV 606
TTITLE8=Orgelbüchlein - Choral Prelude: Vom Himmel kam der Engel Schar
TTITLE8=, BWV 607
TTITLE9=Orgelbüchlein - Choral Prelude: In dulci Jubilo, BWV 608
TTITLE10=Orgelbüchlein - Choral Prelude: Lobt Got, ihr Christen, allzu
TTITLE10=gleich, BWV 609
TTITLE11=Orgelbüchlein - Choral Prelude: Jesu, meine Freude, BWV 610
TTITLE12=Orgelbüchlein - Choral Prelude: Christum wir sollen loben sch
TTITLE12=on, BWV 611
TTITLE13=Orgelbüchlein - Choral Prelude: Wir Christenleut', BWV 612
TTITLE14=Orgelbüchlein - Choral Prelude: Helft mir Gottes Güte preisen
TTITLE14=, BWV 613
TTITLE15=Orgelbüchlein - Choral Prelude: Das alte Jahr vergangen ist, 
TTITLE15=BWV 614
TTITLE16=Orgelbüchlein - Choral Prelude: In dir ist Freude, BWV 615
TTITLE17=Orgelbüchlein - Choral Prelude: Mit Fried' und Freud' ich fah
TTITLE17=r' dahin, BWV 616
TTITLE18=Orgelbüchlein - Choral Prelude: Herr Gott, nun schleuss den H
TTITLE18=immel auf, BWV 617
TTITLE19=Orgelbüchlein - Choral Prelude: O Lamm Gottes unschuldig, BWV
TTITLE19=618
TTITLE20=Orgelbüchlein - Choral Prelude: Christe, du Lamm Gottes, BWV 
TTITLE20=619
TTITLE21=Orgelbüchlein - Choral Prelude: Christus, der unst selig mach
TTITLE21=t, BWV 620
TTITLE22=Orgelbüchlein - Choral Prelude: Da Jesus an dem Kreuze stund'
TTITLE22=, BWV 621
TTITLE23=Orgelbüchlein - Choral Prelude: O Mensch, bewein' dein' Sünde
TTITLE23=gross, BWV 622
TTITLE24=Orgelbüchlein - Choral Prelude: Wir danken dir, Herr Jesu Chr
TTITLE24=ist, BWV 623
TTITLE25=Orgelbüchlein - Choral Prelude: Hilf Gott, dass mir's gleinge
TTITLE25=, BWV 624
TTITLE26=Orgelbüchlein - Choral Prelude: Christ lag in Todesbanden, BW
TTITLE26=V 625
TTITLE27=Orgelbüchlein - Choral Prelude: Jesus Christus, unser Heiland
TTITLE27=, BWV 626
TTITLE28=Orgelbüchlein - Choral Prelude: Christ ist erstanden, BWV 627
TTITLE29=Orgelbüchlein - Choral Prelude: Erstanden ist der heil'ge Chr
TTITLE29=ist, BWV 628
TTITLE30=Orgelbüchlein - Choral Prelude: Ercheinen ist der herrliche T
TTITLE30=ag, BWV 629
TTITLE31=Orgelbüchlein - Choral Prelude: Heut' triumphiert Gottes Sohn
TTITLE31=, BWV 630
TTITLE32=Orgelbüchlein - Choral Prelude: Komm, Gott Schöpfer, heiliger
TTITLE32=Geist, BWV 631
TTITLE33=Orgelbüchlein - Choral Prelude: Herr Jesu Christ, dich zu uns
TTITLE33=wend', BWV 632
TTITLE34=Orgelbüchlein - Choral Prelude: Liebster Jesu, wir sind hier,
TTITLE34=BWV 633
TTITLE35=Orgelbüchlein - Choral Prelude: Dies sind die heil'gen zehn G
TTITLE35=ebot', BWV 635
TTITLE36=Orgelbüchlein - Choral Prelude: Vater unser im Himmelreich, B
TTITLE36=WV 636
TTITLE37=Orgelbüchlein - Choral Prelude: Durch Adams Fall ist ganz ver
TTITLE37=derbt, BWV 637
TTITLE38=Orgelbüchlein - Choral Prelude: Es ist das Heil uns kommen he
TTITLE38=r, BWV 638
TTITLE39=Orgelbüchlein - Choral Prelude: Ich ruf' zu dir, Herr Jesu Ch
TTITLE39=rist, BWV 639
EXTD=YEAR: 1969
EXTT0=
EXTT1=
EXTT2=
EXTT3=
EXTT4=
EXTT5=
EXTT6=
EXTT7=
EXTT8=
EXTT9=
EXTT10=
EXTT11=
EXTT12=
EXTT13=
EXTT14=
EXTT15=
EXTT16=
EXTT17=
EXTT18=
EXTT19=
EXTT20=
EXTT21=
EXTT22=
EXTT23=
EXTT24=
EXTT25=
EXTT26=
EXTT27=
EXTT28=
EXTT29=
EXTT30=
EXTT31=
EXTT32=
EXTT33=
EXTT34=
EXTT35=
EXTT36=
EXTT37=
EXTT38=
EXTT39=
PLAYORDER=
